<?xml version="1.0" encoding="UTF-8" standalone="no"?>
<!DOCTYPE svg PUBLIC "-//W3C//DTD SVG 1.0//EN" "http://www.w3.org/TR/2001/PR-SVG-20010719/DTD/svg10.dtd">
<svg width="24cm" height="14cm" viewBox="459 439 473 272" xmlns="http://www.w3.org/2000/svg" xmlns:xlink="http://www.w3.org/1999/xlink">
  <g>
    <rect style="fill: #ffffff" x="480" y="640" width="80.95" height="70"/>
    <rect style="fill: none; fill-opacity:0; stroke-width: 2; stroke: #000000" x="480" y="640" width="80.95" height="70"/>
    <rect style="fill: #ffffff" x="460" y="654" width="40" height="14"/>
    <rect style="fill: none; fill-opacity:0; stroke-width: 2; stroke: #000000" x="460" y="654" width="40" height="14"/>
    <rect style="fill: #ffffff" x="460" y="682" width="40" height="14"/>
    <rect style="fill: none; fill-opacity:0; stroke-width: 2; stroke: #000000" x="460" y="682" width="40" height="14"/>
    <text font-size="12.8" style="fill: #000000;text-anchor:start;font-family:sans-serif;font-style:normal;font-weight:normal" x="508" y="663.331">
      <tspan x="508" y="663.331">Satellite</tspan>
      <tspan x="508" y="679.331">tracking</tspan>
    </text>
  </g>
  <g>
    <rect style="fill: #ffffff" x="480" y="440" width="80.95" height="70"/>
    <rect style="fill: none; fill-opacity:0; stroke-width: 2; stroke: #000000" x="480" y="440" width="80.95" height="70"/>
    <rect style="fill: #ffffff" x="460" y="454" width="40" height="14"/>
    <rect style="fill: none; fill-opacity:0; stroke-width: 2; stroke: #000000" x="460" y="454" width="40" height="14"/>
    <rect style="fill: #ffffff" x="460" y="482" width="40" height="14"/>
    <rect style="fill: none; fill-opacity:0; stroke-width: 2; stroke: #000000" x="460" y="482" width="40" height="14"/>
    <text font-size="12.8" style="fill: #000000;text-anchor:start;font-family:sans-serif;font-style:normal;font-weight:normal" x="508" y="463.331">
      <tspan x="508" y="463.331">Satellite</tspan>
      <tspan x="508" y="479.331">data</tspan>
      <tspan x="508" y="495.331">storage</tspan>
    </text>
  </g>
  <g>
    <rect style="fill: #ffffff" x="820" y="440" width="110.85" height="70"/>
    <rect style="fill: none; fill-opacity:0; stroke-width: 2; stroke: #000000" x="820" y="440" width="110.85" height="70"/>
    <rect style="fill: #ffffff" x="800" y="454" width="40" height="14"/>
    <rect style="fill: none; fill-opacity:0; stroke-width: 2; stroke: #000000" x="800" y="454" width="40" height="14"/>
    <rect style="fill: #ffffff" x="800" y="482" width="40" height="14"/>
    <rect style="fill: none; fill-opacity:0; stroke-width: 2; stroke: #000000" x="800" y="482" width="40" height="14"/>
    <text font-size="12.8" style="fill: #000000;text-anchor:start;font-family:sans-serif;font-style:normal;font-weight:normal" x="848" y="463.331">
      <tspan x="848" y="463.331">Transmission</tspan>
      <tspan x="848" y="479.331">reception</tspan>
    </text>
  </g>
  <g>
    <rect style="fill: #ffffff" x="820" y="540" width="97.85" height="70"/>
    <rect style="fill: none; fill-opacity:0; stroke-width: 2; stroke: #000000" x="820" y="540" width="97.85" height="70"/>
    <rect style="fill: #ffffff" x="800" y="554" width="40" height="14"/>
    <rect style="fill: none; fill-opacity:0; stroke-width: 2; stroke: #000000" x="800" y="554" width="40" height="14"/>
    <rect style="fill: #ffffff" x="800" y="582" width="40" height="14"/>
    <rect style="fill: none; fill-opacity:0; stroke-width: 2; stroke: #000000" x="800" y="582" width="40" height="14"/>
    <text font-size="12.8" style="fill: #000000;text-anchor:start;font-family:sans-serif;font-style:normal;font-weight:normal" x="848" y="563.331">
      <tspan x="848" y="563.331">Data</tspan>
      <tspan x="848" y="579.331">processing</tspan>
    </text>
  </g>
  <g>
    <rect style="fill: #ffffff" x="640" y="540" width="96" height="70"/>
    <rect style="fill: none; fill-opacity:0; stroke-width: 2; stroke: #000000" x="640" y="540" width="96" height="70"/>
    <rect style="fill: #ffffff" x="620" y="554" width="40" height="14"/>
    <rect style="fill: none; fill-opacity:0; stroke-width: 2; stroke: #000000" x="620" y="554" width="40" height="14"/>
    <rect style="fill: #ffffff" x="620" y="582" width="40" height="14"/>
    <rect style="fill: none; fill-opacity:0; stroke-width: 2; stroke: #000000" x="620" y="582" width="40" height="14"/>
    <text font-size="12.8" style="fill: #000000;text-anchor:start;font-family:sans-serif;font-style:normal;font-weight:normal" x="668" y="563.331">
      <tspan x="668" y="563.331">Integration</tspan>
    </text>
  </g>
  <g>
    <rect style="fill: #ffffff" x="820" y="640" width="92.15" height="70"/>
    <rect style="fill: none; fill-opacity:0; stroke-width: 2; stroke: #000000" x="820" y="640" width="92.15" height="70"/>
    <rect style="fill: #ffffff" x="800" y="654" width="40" height="14"/>
    <rect style="fill: none; fill-opacity:0; stroke-width: 2; stroke: #000000" x="800" y="654" width="40" height="14"/>
    <rect style="fill: #ffffff" x="800" y="682" width="40" height="14"/>
    <rect style="fill: none; fill-opacity:0; stroke-width: 2; stroke: #000000" x="800" y="682" width="40" height="14"/>
    <text font-size="12.8" style="fill: #000000;text-anchor:start;font-family:sans-serif;font-style:normal;font-weight:normal" x="848" y="663.331">
      <tspan x="848" y="663.331">Photo</tspan>
      <tspan x="848" y="679.331">repository</tspan>
    </text>
  </g>
  <line style="fill: none; fill-opacity:0; stroke-width: 2; stroke: #000000" x1="537.336" y1="511.003" x2="618.992" y2="559.746"/>
  <line style="fill: none; fill-opacity:0; stroke-width: 2; stroke: #000000" x1="560.245" y1="638.994" x2="620" y2="589"/>
  <line style="fill: none; fill-opacity:0; stroke-width: 2; stroke: #000000" x1="820" y1="575" x2="736" y2="575"/>
  <line style="fill: none; fill-opacity:0; stroke-width: 2; stroke: #000000" x1="800" y1="489" x2="734.008" y2="538.994"/>
  <line style="fill: none; fill-opacity:0; stroke-width: 2; stroke: #000000" x1="800" y1="661" x2="708.283" y2="610.973"/>
</svg>
